# xmcd
#
# Track frame offsets:
#	150
#	15720
#	44588
#	63973
#	85528
#	107239
#	123392
#	154960
#	187799
#	201275
#	213732
#	239140
#	264803
#	297719
#
# Disc length: 4258 seconds
#
# Revision: 1
# Processed by: cddbd v1.5.2PL0 Copyright (c) Steve Scherf et al.
# Submitted via: EZCDAudioConverter 7.0.6.1
#
DISCID=d010a00e
DTITLE=Various Artist - The Purple Collection 2/2
DYEAR=2018
DGENRE=
TTITLE0=Atella featuring Aurora - Ascension
TTITLE1=Antenna - Sparks
TTITLE2=Dan Solo and Future Feelings featuring Tony Browne - What Else Can I Do
TTITLE3=Simon Says - Feel Me
TTITLE4=Languages - Helicopters
TTITLE5=IV Edition featuring Lilianna Wilde - Whose Man's
TTITLE6=Dogu Civicik - Andromalius IV
TTITLE7=Simple Symmetry - Prince Of Persia
TTITLE8=NTEIBINT featuring Σtella - A State Nearby
TTITLE9=Cavego - Vår I Øyer
TTITLE10=Paresse - Quiet Light
TTITLE11=Hermigervill - Disco Borealis
TTITLE12=Boka - Space Issues
TTITLE13=Horixon featuring Else Born - Hello
EXTD=
EXTT0=
EXTT1=
EXTT2=
EXTT3=
EXTT4=
EXTT5=
EXTT6=
EXTT7=
EXTT8=
EXTT9=
EXTT10=
EXTT11=
EXTT12=
EXTT13=
PLAYORDER=
